PathFileType	4	(X/Y/Z)	 s02c0301.trc
DataRate	CameraRate	NumFrames	NumMarkers	Units	OrigDataRate	OrigDataStartFrame	OrigNumFrames
200	200	4	51	mm	200	1751	2000
Frame#	Time	racr			lacr			c7			jug			rlel			rdr			llel			ldr			s2			lic			ric			lasi			rasi			rpsi			lpsi			rgt			lgt			rth1			rth2			rth3			rth4			rlfc			rmfc			rsh1			rsh2			rsh3			rsh4			rlmal			rmmal			rcal			rtoe			rmt5			rmt1			lth1			lth2			lth4			lth3			llfc			lmfc			lsh1			lsh2			lsh3			lsh4			llmal			lmmal			lcal			ltoe			lmt5			SBIKE			LBIKE			RBIKE			
		X1	Y1	Z1	X2	Y2	Z2	X3	Y3	Z3	X4	Y4	Z4	X5	Y5	Z5	X6	Y6	Z6	X7	Y7	Z7	X8	Y8	Z8	X9	Y9	Z9	X10	Y10	Z10	X11	Y11	Z11	X12	Y12	Z12	X13	Y13	Z13	X14	Y14	Z14	X15	Y15	Z15	X16	Y16	Z16	X17	Y17	Z17	X18	Y18	Z18	X19	Y19	Z19	X20	Y20	Z20	X21	Y21	Z21	X22	Y22	Z22	X23	Y23	Z23	X24	Y24	Z24	X25	Y25	Z25	X26	Y26	Z26	X27	Y27	Z27	X28	Y28	Z28	X29	Y29	Z29	X30	Y30	Z30	X31	Y31	Z31	X32	Y32	Z32	X33	Y33	Z33	X34	Y34	Z34	X35	Y35	Z35	X36	Y36	Z36	X37	Y37	Z37	X38	Y38	Z38	X39	Y39	Z39	X40	Y40	Z40	X41	Y41	Z41	X42	Y42	Z42	X43	Y43	Z43	X44	Y44	Z44	X45	Y45	Z45	X46	Y46	Z46	X47	Y47	Z47	X48	Y48	Z48	X49	Y49	Z49	X50	Y50	Z50	X51	Y51	Z51	
1751	8.7550	566.206776	1219.429051	-72.960834	578.465870	1271.800677	-415.013945	572.655505	1283.175477	-241.315635	507.255221	1158.286151	-251.601248	559.290162	957.441781	-11.168012	715.433005	842.981478	-101.486048	548.644373	1009.233040	-543.120831	709.826260	851.836251	-497.094501	18.181157	1154.417819	-307.143127	174.922521	1139.378295	-437.631427	136.004266	1136.116972	-160.429702	199.297912	1091.185052	-413.460508	184.688573	1103.607187	-186.400997	55.804093	1198.430997	-260.319055	74.162952	1212.544768	-343.057056	104.411624	1076.908022	-116.720405	91.004696	1054.792701	-484.186581	185.126935	1054.807212	-119.705712	271.526883	1042.565810	-125.708858	341.406828	999.404644	-100.695694	283.177440	1067.345082	-151.954996	463.968363	916.035279	-133.913442	460.569697	896.420100	-246.749579	450.369983	803.202017	-119.736953	434.631757	717.128271	-139.510039	383.625158	647.566240	-136.341963	448.250735	715.138269	-176.920025	324.880270	539.191172	-144.036418	334.352817	558.209686	-223.693161	246.617353	497.080596	-184.732997	530.196661	459.467775	-190.548172	422.359928	455.215772	-128.379752	446.994769	466.719018	-236.428301	176.125216	931.494312	-503.160459	231.651089	864.352376	-497.056573	259.429423	877.486390	-476.122641	245.284324	776.481135	-500.703402	282.137331	684.591472	-476.126659	277.894933	653.868401	-377.466607	240.349731	589.719641	-499.345129	223.457428	506.495286	-482.626897	164.614388	437.745042	-484.878868	242.073979	500.962639	-446.715483	107.229456	351.377167	-468.848590	122.015054	341.830831	-392.211051	31.544065	329.971996	-431.265813	280.961014	185.739449	-436.876401	176.736060	215.492248	-497.117783	-126.416030	873.184717	-308.040170	37.452821	86.698667	-514.215247	33.970112	83.215776	-114.051610	
1752	8.7600	565.543385	1219.441297	-73.176214	577.651385	1272.438152	-415.773785	572.126537	1283.642087	-241.674472	506.538618	1158.843483	-252.117064	558.642943	957.429075	-11.781468	715.181507	842.985093	-101.681314	548.575276	1009.605720	-543.166757	709.729211	852.005802	-497.333183	17.479027	1155.959486	-306.959086	173.618166	1141.480430	-438.012164	135.644541	1136.506700	-159.746662	197.967346	1093.042160	-413.898164	184.113654	1103.521409	-186.570078	55.332960	1199.582473	-259.878057	74.576829	1214.001518	-342.890220	103.684790	1076.319702	-117.422733	90.032770	1057.398053	-484.590308	184.673977	1052.746158	-120.517278	270.786636	1038.604750	-127.113369	339.867406	994.183187	-101.982015	283.025875	1063.836163	-152.421647	460.991289	907.889368	-135.889129	457.207358	888.895373	-248.320059	448.194858	795.062077	-120.817605	434.666594	708.707039	-140.756187	385.065057	638.024566	-137.206738	448.186328	706.960826	-178.232257	330.518772	528.691337	-144.946065	337.776475	547.941033	-224.691427	251.433891	485.173207	-185.032454	535.802054	453.542720	-190.484319	428.186692	446.904569	-128.548966	452.456242	458.740216	-236.370217	177.036978	935.386889	-503.234823	233.848206	869.353703	-497.280180	261.299772	882.995090	-476.227570	249.441630	781.772853	-500.917285	287.016701	689.541942	-477.519690	282.902584	658.804073	-378.577975	243.483853	594.966610	-500.281180	224.352598	512.186723	-483.132263	163.767722	445.154806	-485.219690	242.961832	506.302688	-447.338521	104.085461	360.374758	-468.869133	118.670700	350.779670	-392.320419	27.919656	340.691409	-431.265484	274.471804	191.639983	-436.862477	170.792861	223.366330	-497.094119	-126.393611	873.175215	-308.050991	37.457868	86.665399	-514.201500	33.968705	83.220589	-114.070009	
1753	8.7650	564.920733	1219.545951	-73.471578	576.774588	1273.078228	-416.519042	571.599377	1284.018687	-242.011975	505.893149	1159.324612	-252.764064	558.134987	957.457488	-12.375311	715.006989	842.978631	-101.908834	548.507653	1009.907083	-543.148462	709.630651	852.185895	-497.541317	16.783844	1157.320684	-306.753974	172.338701	1143.346715	-438.233744	135.380199	1136.517211	-159.629818	196.705368	1094.842266	-414.446096	183.629718	1103.260852	-186.672669	54.817476	1200.414053	-259.321228	74.883885	1215.353158	-342.665440	102.932285	1075.511287	-118.180363	89.107885	1059.865413	-484.922889	184.254128	1050.354996	-121.340981	270.181526	1034.697857	-127.706441	338.188543	988.380584	-103.295918	282.852496	1059.062793	-153.609963	457.548502	899.631877	-137.715347	453.532359	881.052724	-249.980403	445.915224	786.513973	-122.152800	434.316733	699.816901	-141.943552	386.348684	628.074801	-138.255909	447.926211	697.835140	-179.648684	334.012582	517.494375	-145.955208	341.204359	537.001036	-225.594425	255.990368	473.041958	-185.368169	541.012477	446.758266	-190.496976	433.317222	438.391922	-128.640329	457.594608	450.402691	-236.286200	178.076565	939.294524	-503.028110	236.166625	874.563782	-497.588744	263.280932	888.615905	-476.375843	253.656630	787.352987	-501.690935	292.152842	694.777705	-479.033564	288.382073	663.947625	-379.668116	246.940093	600.380205	-501.203749	225.757477	518.351383	-483.877334	163.410681	452.726986	-485.624062	244.205790	512.126314	-447.927223	101.442392	369.932298	-469.005587	116.143544	360.030954	-392.435868	24.883138	351.839263	-431.278444	268.327077	198.016025	-436.941028	165.332917	231.698395	-497.109260	-126.402891	873.179577	-308.071783	37.467450	86.682282	-514.207893	33.973054	83.224510	-114.067055	
1754	8.7700	564.411372	1219.775464	-73.767907	575.878281	1273.822222	-417.381906	571.026694	1284.381158	-242.490054	505.275113	1159.638552	-253.409104	557.553045	957.492328	-13.081918	714.853437	842.996495	-102.138707	548.443643	1010.189992	-543.101997	709.531089	852.372394	-497.707869	16.210573	1158.363817	-306.369070	171.079319	1145.166355	-438.556092	135.048426	1136.205874	-159.498192	195.523583	1096.527230	-415.075458	183.128439	1102.753787	-186.878114	54.387712	1201.067562	-258.825143	74.729232	1216.431579	-342.161954	102.244845	1074.521681	-118.927041	88.201225	1062.225603	-485.260420	183.816179	1047.569617	-122.199929	269.412110	1030.127171	-128.698860	336.392754	982.184560	-104.508978	282.605190	1054.345852	-155.029271	453.552899	890.325004	-139.488368	449.601072	872.505052	-251.509871	443.302221	777.650154	-123.430132	430.944266	689.000913	-144.945686	387.444554	617.647846	-139.297160	447.034236	688.753549	-180.918125	337.675926	506.778063	-146.424752	344.547124	525.602043	-226.368225	260.284508	460.765539	-185.733485	545.897429	439.162815	-190.536504	438.280604	429.230015	-128.888806	462.458283	441.613067	-236.499624	179.099687	943.378466	-503.200082	238.572607	879.888682	-497.967122	265.365363	894.428718	-476.638234	257.991570	793.083164	-502.571195	297.576463	700.056005	-480.558265	294.223810	669.245184	-380.762335	250.855464	606.091453	-502.220784	227.519672	524.638298	-484.517553	163.635733	460.612721	-486.033730	246.025137	517.959713	-448.799782	99.402224	379.917171	-469.120132	113.874322	369.779538	-392.593838	22.335795	363.393832	-431.211926	262.608598	204.898875	-437.016219	160.252394	240.483134	-497.121403	-126.383013	873.183750	-308.086376	37.463605	86.646490	-514.201335	33.977330	83.205315	-114.064635	
